<mxfile host="app.diagrams.net" modified="2024-07-11T11:33:17.151Z" agent="Mozilla/5.0 (Macintosh; Intel Mac OS X 10_15_7) AppleWebKit/537.36 (KHTML, like Gecko) Chrome/126.0.0.0 Safari/537.36" etag="WHCFgaGmu0mR7LHwG_Ad" version="24.6.4" type="device">
  <diagram name="Page-1" id="VeV9YeG3vAPertdUEK9a">
    <mxGraphModel dx="2295" dy="946" grid="1" gridSize="10" guides="1" tooltips="1" connect="1" arrows="1" fold="1" page="1" pageScale="1" pageWidth="827" pageHeight="1169" math="0" shadow="0">
      <root>
        <mxCell id="0" />
        <mxCell id="1" parent="0" />
        <mxCell id="wSl9XEOdMfK8scYyQSMX-20" style="edgeStyle=orthogonalEdgeStyle;rounded=0;orthogonalLoop=1;jettySize=auto;html=1;exitX=1;exitY=0.25;exitDx=0;exitDy=0;entryX=0;entryY=0.25;entryDx=0;entryDy=0;" parent="1" edge="1">
          <mxGeometry relative="1" as="geometry">
            <mxPoint x="360" y="440" as="sourcePoint" />
            <mxPoint x="560" y="440" as="targetPoint" />
          </mxGeometry>
        </mxCell>
        <mxCell id="6a5F7fYGODU6a1QjgI91-26" style="edgeStyle=orthogonalEdgeStyle;rounded=0;orthogonalLoop=1;jettySize=auto;html=1;exitX=0.5;exitY=0;exitDx=0;exitDy=0;entryX=0;entryY=0.5;entryDx=0;entryDy=0;" edge="1" parent="1" source="wSl9XEOdMfK8scYyQSMX-1" target="wSl9XEOdMfK8scYyQSMX-19">
          <mxGeometry relative="1" as="geometry" />
        </mxCell>
        <mxCell id="wSl9XEOdMfK8scYyQSMX-1" value="" style="rounded=0;whiteSpace=wrap;html=1;" parent="1" vertex="1">
          <mxGeometry x="160" y="240" width="200" height="280" as="geometry" />
        </mxCell>
        <mxCell id="wSl9XEOdMfK8scYyQSMX-2" value="Frontend (React.js)" style="text;html=1;align=center;verticalAlign=middle;resizable=0;points=[];autosize=1;strokeColor=none;fillColor=none;" parent="1" vertex="1">
          <mxGeometry x="195" y="530" width="130" height="30" as="geometry" />
        </mxCell>
        <mxCell id="wSl9XEOdMfK8scYyQSMX-3" value="UI Components" style="rounded=0;whiteSpace=wrap;html=1;" parent="1" vertex="1">
          <mxGeometry x="195" y="280" width="120" height="60" as="geometry" />
        </mxCell>
        <mxCell id="wSl9XEOdMfK8scYyQSMX-4" value="Axios" style="rounded=0;whiteSpace=wrap;html=1;" parent="1" vertex="1">
          <mxGeometry x="195" y="400" width="120" height="60" as="geometry" />
        </mxCell>
        <mxCell id="wSl9XEOdMfK8scYyQSMX-22" style="edgeStyle=orthogonalEdgeStyle;rounded=0;orthogonalLoop=1;jettySize=auto;html=1;exitX=0;exitY=0.25;exitDx=0;exitDy=0;entryX=1;entryY=0.25;entryDx=0;entryDy=0;" parent="1" edge="1">
          <mxGeometry relative="1" as="geometry">
            <mxPoint x="560" y="310" as="sourcePoint" />
            <mxPoint x="360" y="310" as="targetPoint" />
          </mxGeometry>
        </mxCell>
        <mxCell id="6a5F7fYGODU6a1QjgI91-5" style="edgeStyle=orthogonalEdgeStyle;rounded=0;orthogonalLoop=1;jettySize=auto;html=1;exitX=1;exitY=0.25;exitDx=0;exitDy=0;entryX=0;entryY=0.25;entryDx=0;entryDy=0;" edge="1" parent="1" source="wSl9XEOdMfK8scYyQSMX-8" target="wSl9XEOdMfK8scYyQSMX-12">
          <mxGeometry relative="1" as="geometry" />
        </mxCell>
        <mxCell id="wSl9XEOdMfK8scYyQSMX-8" value="" style="rounded=0;whiteSpace=wrap;html=1;" parent="1" vertex="1">
          <mxGeometry x="560" y="240" width="200" height="280" as="geometry" />
        </mxCell>
        <mxCell id="wSl9XEOdMfK8scYyQSMX-9" value="API Endpoints" style="rounded=0;whiteSpace=wrap;html=1;" parent="1" vertex="1">
          <mxGeometry x="600" y="280" width="120" height="60" as="geometry" />
        </mxCell>
        <mxCell id="wSl9XEOdMfK8scYyQSMX-10" value="Business Logic" style="rounded=0;whiteSpace=wrap;html=1;" parent="1" vertex="1">
          <mxGeometry x="600" y="400" width="120" height="60" as="geometry" />
        </mxCell>
        <mxCell id="wSl9XEOdMfK8scYyQSMX-11" value="Backend (Node.js &amp;amp; Express.js)" style="text;html=1;align=center;verticalAlign=middle;resizable=0;points=[];autosize=1;strokeColor=none;fillColor=none;" parent="1" vertex="1">
          <mxGeometry x="560" y="530" width="190" height="30" as="geometry" />
        </mxCell>
        <mxCell id="wSl9XEOdMfK8scYyQSMX-12" value="" style="rounded=0;whiteSpace=wrap;html=1;" parent="1" vertex="1">
          <mxGeometry x="960" y="240" width="200" height="280" as="geometry" />
        </mxCell>
        <mxCell id="wSl9XEOdMfK8scYyQSMX-13" value="&lt;meta charset=&quot;utf-8&quot;&gt;Contacts Collection" style="rounded=0;whiteSpace=wrap;html=1;" parent="1" vertex="1">
          <mxGeometry x="1000" y="280" width="120" height="30" as="geometry" />
        </mxCell>
        <mxCell id="wSl9XEOdMfK8scYyQSMX-14" value="Admins Collection" style="rounded=0;whiteSpace=wrap;html=1;" parent="1" vertex="1">
          <mxGeometry x="1000" y="340" width="120" height="30" as="geometry" />
        </mxCell>
        <mxCell id="wSl9XEOdMfK8scYyQSMX-15" value="Database (MongoDB)" style="text;html=1;align=center;verticalAlign=middle;resizable=0;points=[];autosize=1;strokeColor=none;fillColor=none;" parent="1" vertex="1">
          <mxGeometry x="985" y="530" width="140" height="30" as="geometry" />
        </mxCell>
        <mxCell id="wSl9XEOdMfK8scYyQSMX-17" value="Appointments Collection" style="rounded=0;whiteSpace=wrap;html=1;" parent="1" vertex="1">
          <mxGeometry x="1000" y="400" width="120" height="30" as="geometry" />
        </mxCell>
        <mxCell id="wSl9XEOdMfK8scYyQSMX-18" value="Clients Collection" style="rounded=0;whiteSpace=wrap;html=1;" parent="1" vertex="1">
          <mxGeometry x="1000" y="460" width="120" height="30" as="geometry" />
        </mxCell>
        <mxCell id="6a5F7fYGODU6a1QjgI91-17" style="edgeStyle=orthogonalEdgeStyle;rounded=0;orthogonalLoop=1;jettySize=auto;html=1;exitX=1;exitY=0.5;exitDx=0;exitDy=0;entryX=0.5;entryY=0;entryDx=0;entryDy=0;" edge="1" parent="1" source="wSl9XEOdMfK8scYyQSMX-19" target="wSl9XEOdMfK8scYyQSMX-8">
          <mxGeometry relative="1" as="geometry" />
        </mxCell>
        <mxCell id="wSl9XEOdMfK8scYyQSMX-19" value="Authentication (JWT)" style="rounded=0;whiteSpace=wrap;html=1;" parent="1" vertex="1">
          <mxGeometry x="350" y="40" width="200" height="60" as="geometry" />
        </mxCell>
        <mxCell id="wSl9XEOdMfK8scYyQSMX-21" value="HTTP Requests (Axios)" style="text;html=1;align=center;verticalAlign=middle;resizable=0;points=[];autosize=1;strokeColor=none;fillColor=none;" parent="1" vertex="1">
          <mxGeometry x="385" y="410" width="150" height="30" as="geometry" />
        </mxCell>
        <mxCell id="6a5F7fYGODU6a1QjgI91-2" value="HTTP Responses" style="text;html=1;align=center;verticalAlign=middle;resizable=0;points=[];autosize=1;strokeColor=none;fillColor=none;" vertex="1" parent="1">
          <mxGeometry x="400" y="280" width="120" height="30" as="geometry" />
        </mxCell>
        <mxCell id="6a5F7fYGODU6a1QjgI91-21" style="edgeStyle=orthogonalEdgeStyle;rounded=0;orthogonalLoop=1;jettySize=auto;html=1;entryX=0;entryY=0.25;entryDx=0;entryDy=0;" edge="1" parent="1" source="6a5F7fYGODU6a1QjgI91-3" target="wSl9XEOdMfK8scYyQSMX-1">
          <mxGeometry relative="1" as="geometry" />
        </mxCell>
        <mxCell id="6a5F7fYGODU6a1QjgI91-3" value="User" style="rounded=0;whiteSpace=wrap;html=1;" vertex="1" parent="1">
          <mxGeometry x="-480" y="245" width="200" height="60" as="geometry" />
        </mxCell>
        <mxCell id="6a5F7fYGODU6a1QjgI91-23" style="edgeStyle=orthogonalEdgeStyle;rounded=0;orthogonalLoop=1;jettySize=auto;html=1;entryX=0;entryY=0.25;entryDx=0;entryDy=0;" edge="1" parent="1" source="6a5F7fYGODU6a1QjgI91-4" target="wSl9XEOdMfK8scYyQSMX-1">
          <mxGeometry relative="1" as="geometry" />
        </mxCell>
        <mxCell id="6a5F7fYGODU6a1QjgI91-4" value="Admin" style="rounded=0;whiteSpace=wrap;html=1;" vertex="1" parent="1">
          <mxGeometry x="-480" y="330" width="200" height="60" as="geometry" />
        </mxCell>
        <mxCell id="6a5F7fYGODU6a1QjgI91-6" style="edgeStyle=orthogonalEdgeStyle;rounded=0;orthogonalLoop=1;jettySize=auto;html=1;exitX=1;exitY=0.25;exitDx=0;exitDy=0;entryX=0;entryY=0.25;entryDx=0;entryDy=0;" edge="1" parent="1">
          <mxGeometry relative="1" as="geometry">
            <mxPoint x="760" y="354.62" as="sourcePoint" />
            <mxPoint x="960" y="354.62" as="targetPoint" />
          </mxGeometry>
        </mxCell>
        <mxCell id="6a5F7fYGODU6a1QjgI91-7" style="edgeStyle=orthogonalEdgeStyle;rounded=0;orthogonalLoop=1;jettySize=auto;html=1;exitX=1;exitY=0.25;exitDx=0;exitDy=0;entryX=0;entryY=0.25;entryDx=0;entryDy=0;" edge="1" parent="1">
          <mxGeometry relative="1" as="geometry">
            <mxPoint x="760" y="414.62" as="sourcePoint" />
            <mxPoint x="960" y="414.62" as="targetPoint" />
          </mxGeometry>
        </mxCell>
        <mxCell id="6a5F7fYGODU6a1QjgI91-8" style="edgeStyle=orthogonalEdgeStyle;rounded=0;orthogonalLoop=1;jettySize=auto;html=1;exitX=1;exitY=0.25;exitDx=0;exitDy=0;entryX=0;entryY=0.25;entryDx=0;entryDy=0;" edge="1" parent="1">
          <mxGeometry relative="1" as="geometry">
            <mxPoint x="760" y="474.62" as="sourcePoint" />
            <mxPoint x="960" y="474.62" as="targetPoint" />
          </mxGeometry>
        </mxCell>
        <mxCell id="6a5F7fYGODU6a1QjgI91-9" value="CRUD Operations" style="text;html=1;align=center;verticalAlign=middle;resizable=0;points=[];autosize=1;strokeColor=none;fillColor=none;" vertex="1" parent="1">
          <mxGeometry x="790" y="278" width="120" height="30" as="geometry" />
        </mxCell>
        <mxCell id="6a5F7fYGODU6a1QjgI91-10" value="CRUD Operations" style="text;html=1;align=center;verticalAlign=middle;resizable=0;points=[];autosize=1;strokeColor=none;fillColor=none;" vertex="1" parent="1">
          <mxGeometry x="790" y="330" width="120" height="30" as="geometry" />
        </mxCell>
        <mxCell id="6a5F7fYGODU6a1QjgI91-13" value="CRUD Operations" style="text;html=1;align=center;verticalAlign=middle;resizable=0;points=[];autosize=1;strokeColor=none;fillColor=none;" vertex="1" parent="1">
          <mxGeometry x="790" y="390" width="120" height="30" as="geometry" />
        </mxCell>
        <mxCell id="6a5F7fYGODU6a1QjgI91-14" value="CRUD Operations" style="text;html=1;align=center;verticalAlign=middle;resizable=0;points=[];autosize=1;strokeColor=none;fillColor=none;" vertex="1" parent="1">
          <mxGeometry x="790" y="450" width="120" height="30" as="geometry" />
        </mxCell>
        <mxCell id="6a5F7fYGODU6a1QjgI91-16" value="Token Requests" style="text;html=1;align=center;verticalAlign=middle;resizable=0;points=[];autosize=1;strokeColor=none;fillColor=none;rotation=-90;" vertex="1" parent="1">
          <mxGeometry x="190" y="130" width="110" height="30" as="geometry" />
        </mxCell>
        <mxCell id="6a5F7fYGODU6a1QjgI91-18" value="Token Verification" style="text;html=1;align=center;verticalAlign=middle;resizable=0;points=[];autosize=1;strokeColor=none;fillColor=none;rotation=90;" vertex="1" parent="1">
          <mxGeometry x="620" y="140" width="120" height="30" as="geometry" />
        </mxCell>
        <mxCell id="6a5F7fYGODU6a1QjgI91-24" value="User Interactions" style="text;html=1;align=center;verticalAlign=middle;resizable=0;points=[];autosize=1;strokeColor=none;fillColor=none;" vertex="1" parent="1">
          <mxGeometry x="-240" y="240" width="110" height="30" as="geometry" />
        </mxCell>
        <mxCell id="6a5F7fYGODU6a1QjgI91-25" value="&lt;meta charset=&quot;utf-8&quot;&gt;Admin Interactions" style="text;html=1;align=center;verticalAlign=middle;resizable=0;points=[];autosize=1;strokeColor=none;fillColor=none;" vertex="1" parent="1">
          <mxGeometry x="-240" y="365" width="120" height="30" as="geometry" />
        </mxCell>
      </root>
    </mxGraphModel>
  </diagram>
</mxfile>
